<?xml version="1.0" standalone="no"?>
<!DOCTYPE svg PUBLIC "-//W3C//DTD SVG 20010904//EN"
 "http://www.w3.org/TR/2001/REC-SVG-20010904/DTD/svg10.dtd">
<svg version="1.0" xmlns="http://www.w3.org/2000/svg"
 width="96.000000pt" height="96.000000pt" viewBox="0 0 96.000000 96.000000"
 preserveAspectRatio="xMidYMid meet">
<metadata>
Created by potrace 1.11, written by Peter Selinger 2001-2013
</metadata>
<g transform="translate(0.000000,96.000000) scale(0.100000,-0.100000)"
fill="#000000" stroke="none">
<path d="M445 822 c-16 -10 -73 -41 -125 -69 -52 -28 -124 -67 -160 -87 -36
-20 -75 -42 -87 -48 -13 -6 -23 -14 -23 -17 0 -4 97 -59 215 -124 l215 -117
175 95 c96 52 177 95 180 95 3 0 5 -61 5 -135 l0 -135 40 0 40 0 -2 161 -3
161 -215 119 c-118 65 -217 118 -220 118 -3 1 -18 -7 -35 -17z"/>
<path d="M200 351 l0 -79 140 -76 140 -76 123 66 c67 37 130 72 140 78 14 9
17 25 17 89 l0 79 -106 -57 c-58 -31 -121 -65 -140 -76 l-35 -19 -136 75 c-75
41 -138 75 -140 75 -1 0 -3 -36 -3 -79z"/>
</g>
</svg>
